<svg width="350" height="204" viewBox="0 0 350 204" fill="none" xmlns="http://www.w3.org/2000/svg">
<g clip-path="url(#clip0_5_28)">
<path d="M349.993 190.032C349.939 194.528 349.487 199.017 348.64 203.47C348.61 203.627 348.578 203.783 348.548 203.939L290.737 203.704C290.568 203.549 290.401 203.392 290.239 203.233C289.699 202.706 289.193 202.165 288.729 201.605C286.497 198.907 285.475 195.748 286.499 193.568L286.517 193.534C286.738 193.057 287.087 192.616 287.542 192.237C289.877 190.323 294.597 190.642 298.881 192.187C295.039 189.124 291.979 185.259 291.747 181.809C291.519 178.444 293.935 176.041 296.555 173.998C296.641 173.93 296.727 173.865 296.813 173.799C296.855 173.765 296.899 173.733 296.941 173.699C298.985 172.143 301.369 170.608 304.819 170.794C308.603 170.998 312.798 173.306 315.739 175.995C318.681 178.683 320.635 181.737 322.617 184.717C324.601 187.695 326.747 190.749 329.93 193.294C325.619 189.322 322.142 184.803 320.858 180.408C319.574 176.013 320.704 171.792 324.547 169.722C325.713 169.113 327.063 168.716 328.484 168.565C328.649 168.545 328.818 168.528 328.989 168.514C332.546 168.219 336.793 169.115 340.407 171.257C344.387 173.615 347.146 177.111 348.519 180.43C349.891 183.749 350.038 186.944 349.993 190.032Z" fill="#F2F2F2"/>
<path d="M312.17 203.791L311.065 203.787C310.714 203.627 310.361 203.469 310.007 203.313C309.788 203.212 309.566 203.115 309.344 203.016C305.677 201.385 301.987 199.821 298.275 198.323C294.565 196.824 290.837 195.394 287.091 194.033C286.992 194.001 286.911 193.945 286.862 193.875C286.813 193.804 286.8 193.724 286.825 193.647C286.829 193.637 286.835 193.627 286.843 193.619C286.895 193.547 287.012 193.517 287.183 193.578C287.642 193.746 288.104 193.914 288.564 194.086C292.321 195.47 296.061 196.923 299.786 198.446C303.508 199.968 307.209 201.557 310.888 203.213C310.965 203.247 311.043 203.283 311.12 203.318C311.471 203.475 311.82 203.633 312.17 203.791Z" fill="white"/>
<path d="M326.424 203.849L325.74 203.847C325.586 203.689 325.434 203.532 325.28 203.375C321.658 199.676 318.036 195.976 314.416 192.277C308.486 186.22 302.558 180.164 296.632 174.107C296.597 174.075 296.571 174.038 296.555 173.998C296.505 173.864 296.64 173.785 296.813 173.799C296.886 173.806 296.956 173.825 297.019 173.854C297.081 173.883 297.134 173.921 297.175 173.966C300.499 177.363 303.823 180.758 307.145 184.152C313.044 190.178 318.942 196.204 324.839 202.229C325.214 202.611 325.589 202.995 325.964 203.378C326.118 203.535 326.272 203.692 326.424 203.849Z" fill="white"/>
<path d="M341.653 200.958C341.618 201.797 341.541 202.623 341.442 203.441C341.422 203.597 341.403 203.754 341.384 203.91L340.667 203.907C340.689 203.751 340.71 203.594 340.73 203.438C340.881 202.256 340.989 201.061 341.003 199.834C341.023 196.43 340.567 193.034 339.644 189.698C338.663 186.106 337.255 182.583 335.435 179.168C333.524 175.567 331.221 172.083 328.547 168.75C328.497 168.696 328.474 168.63 328.484 168.565C328.513 168.416 328.785 168.372 328.989 168.514C329.029 168.542 329.064 168.574 329.092 168.609C329.423 169.023 329.747 169.439 330.066 169.855C332.642 173.207 334.846 176.703 336.658 180.31C338.385 183.736 339.698 187.264 340.583 190.856C341.412 194.188 341.77 197.573 341.653 200.958Z" fill="white"/>
<path d="M236.952 196.551C236.924 198.9 236.688 201.246 236.245 203.573C236.229 203.654 236.213 203.736 236.197 203.818L205.987 203.695C205.898 203.614 205.811 203.532 205.726 203.449C205.444 203.173 205.18 202.891 204.937 202.598C203.77 201.188 203.236 199.537 203.772 198.398L203.781 198.38C203.897 198.131 204.079 197.901 204.317 197.703C205.537 196.703 208.004 196.869 210.242 197.677C208.234 196.076 206.636 194.056 206.514 192.253C206.395 190.495 207.657 189.239 209.027 188.171C209.072 188.136 209.117 188.102 209.162 188.067C209.183 188.05 209.207 188.033 209.228 188.015C210.297 187.202 211.542 186.4 213.345 186.497C215.323 186.603 217.515 187.81 219.052 189.215C220.589 190.62 221.611 192.215 222.646 193.773C223.683 195.329 224.804 196.925 226.468 198.255C224.215 196.179 222.398 193.818 221.727 191.521C221.056 189.224 221.646 187.018 223.655 185.937C224.264 185.618 224.97 185.411 225.712 185.332C225.798 185.322 225.886 185.313 225.976 185.305C227.835 185.151 230.054 185.62 231.943 186.739C233.964 188.004 235.437 189.669 236.182 191.533C236.899 193.267 236.975 194.936 236.952 196.551Z" fill="#F2F2F2"/>
<path d="M217.187 203.741L216.609 203.738C216.426 203.655 216.241 203.572 216.056 203.491C215.942 203.438 215.826 203.387 215.71 203.335C213.794 202.483 211.865 201.666 209.925 200.883C207.987 200.099 206.039 199.352 204.081 198.641C204.029 198.624 203.987 198.595 203.961 198.558C203.936 198.522 203.929 198.479 203.942 198.439C203.944 198.434 203.947 198.429 203.951 198.425C203.979 198.387 204.04 198.372 204.129 198.404C204.369 198.491 204.61 198.579 204.851 198.669C206.814 199.392 208.769 200.152 210.715 200.947C212.66 201.742 214.594 202.573 216.517 203.438C216.557 203.456 216.598 203.475 216.638 203.493C216.821 203.575 217.004 203.658 217.187 203.741Z" fill="white"/>
<path d="M224.635 203.771L224.278 203.769C224.198 203.687 224.118 203.605 224.038 203.523C222.145 201.59 220.252 199.657 218.36 197.723C215.262 194.558 212.164 191.393 209.067 188.228C209.049 188.211 209.035 188.192 209.027 188.171C209 188.101 209.071 188.06 209.162 188.067C209.2 188.071 209.236 188.081 209.269 188.096C209.302 188.111 209.329 188.131 209.35 188.155C211.088 189.93 212.824 191.704 214.561 193.477C217.643 196.627 220.725 199.775 223.807 202.924C224.003 203.124 224.199 203.325 224.395 203.525C224.476 203.607 224.556 203.689 224.635 203.771Z" fill="white"/>
<path d="M232.594 202.26C232.575 202.699 232.536 203.13 232.483 203.557C232.473 203.639 232.463 203.721 232.453 203.803L232.078 203.801C232.09 203.719 232.101 203.638 232.111 203.556C232.191 202.938 232.247 202.314 232.254 201.672C232.264 199.894 232.026 198.119 231.544 196.376C231.031 194.499 230.295 192.657 229.344 190.873C228.346 188.991 227.142 187.171 225.745 185.429C225.719 185.4 225.707 185.366 225.712 185.332C225.727 185.254 225.87 185.231 225.976 185.305C225.997 185.32 226.015 185.337 226.03 185.355C226.202 185.571 226.372 185.789 226.539 186.006C227.885 187.758 229.037 189.585 229.984 191.47C230.886 193.26 231.572 195.104 232.035 196.981C232.468 198.722 232.655 200.491 232.594 202.26Z" fill="white"/>
<path d="M62.5219 110.938H5.90447C4.33906 110.936 2.83827 110.483 1.73135 109.677C0.624435 108.87 0.00178387 107.777 0 106.637V57.1081C0.00178387 55.9681 0.624435 54.875 1.73135 54.0689C2.83827 53.2627 4.33906 52.8093 5.90447 52.808H62.5219C64.0873 52.8093 65.5881 53.2627 66.695 54.0689C67.8019 54.875 68.4245 55.9681 68.4263 57.1081V106.637C68.4245 107.777 67.8019 108.87 66.695 109.677C65.5881 110.483 64.0873 110.936 62.5219 110.938ZM5.90447 53.3567C4.53882 53.3579 3.22954 53.7535 2.26388 54.4567C1.29822 55.16 0.755028 56.1135 0.753488 57.1081V106.637C0.755028 107.632 1.29822 108.585 2.26388 109.289C3.22954 109.992 4.53882 110.388 5.90447 110.389H62.5219C63.8875 110.388 65.1968 109.992 66.1625 109.289C67.1281 108.585 67.6713 107.632 67.6728 106.637V57.1081C67.6713 56.1135 67.1281 55.16 66.1625 54.4567C65.1968 53.7535 63.8875 53.3579 62.5219 53.3567H5.90447Z" fill="#3F3D56"/>
<path d="M47.448 56.8793H20.9784C19.7298 56.8783 18.5328 56.5166 17.6499 55.8736C16.7671 55.2306 16.2705 54.3589 16.2691 53.4496V52.715C16.2705 51.8057 16.7671 50.9339 17.6499 50.2909C18.5328 49.648 19.7298 49.2863 20.9784 49.2853H47.448C48.6965 49.2863 49.8935 49.648 50.7764 50.2909C51.6593 50.9339 52.1559 51.8057 52.1573 52.715V53.4496C52.1559 54.3589 51.6593 55.2306 50.7764 55.8736C49.8935 56.5166 48.6965 56.8783 47.448 56.8793Z" fill="#CCCCCC"/>
<path d="M60.1768 83.8246H8.2496C7.89738 83.8249 7.54853 83.7747 7.223 83.6767C6.89746 83.5788 6.60163 83.435 6.35243 83.2538C6.10322 83.0725 5.90551 82.8572 5.77063 82.6202C5.63574 82.3833 5.56631 82.1293 5.56631 81.8727C5.56631 81.6162 5.63574 81.3622 5.77063 81.1253C5.90551 80.8883 6.10322 80.673 6.35243 80.4917C6.60163 80.3104 6.89746 80.1667 7.223 80.0688C7.54853 79.9708 7.89738 79.9205 8.2496 79.9208H60.1768C60.887 79.9215 61.5679 80.1274 62.0698 80.4934C62.5718 80.8594 62.8537 81.3555 62.8537 81.8727C62.8537 82.39 62.5718 82.8861 62.0698 83.2521C61.5679 83.6181 60.887 83.824 60.1768 83.8246Z" fill="#6C63FF"/>
<path d="M60.1768 92.1202H8.2496C7.89738 92.1205 7.54853 92.0702 7.223 91.9723C6.89746 91.8743 6.60163 91.7306 6.35243 91.5493C6.10322 91.368 5.90551 91.1528 5.77063 90.9158C5.63574 90.6788 5.56631 90.4248 5.56631 90.1683C5.56631 89.9118 5.63574 89.6578 5.77063 89.4208C5.90551 89.1838 6.10322 88.9686 6.35243 88.7873C6.60163 88.606 6.89746 88.4623 7.223 88.3643C7.54853 88.2664 7.89738 88.2161 8.2496 88.2164H60.1768C60.887 88.217 61.5679 88.4229 62.0698 88.7889C62.5718 89.1549 62.8537 89.651 62.8537 90.1683C62.8537 90.6856 62.5718 91.1817 62.0698 91.5477C61.5679 91.9137 60.887 92.1196 60.1768 92.1202Z" fill="#6C63FF"/>
<path d="M46.2737 75.5291H22.1527C21.8004 75.5294 21.4516 75.4791 21.1261 75.3812C20.8005 75.2832 20.5047 75.1395 20.2555 74.9582C20.0063 74.7769 19.8086 74.5616 19.6737 74.3247C19.5388 74.0877 19.4694 73.8337 19.4694 73.5772C19.4694 73.3207 19.5388 73.0667 19.6737 72.8297C19.8086 72.5927 20.0063 72.3775 20.2555 72.1962C20.5047 72.0149 20.8005 71.8712 21.1261 71.7732C21.4516 71.6753 21.8004 71.625 22.1527 71.6253H46.2737C46.6259 71.625 46.9748 71.6753 47.3003 71.7732C47.6258 71.8712 47.9217 72.0149 48.1709 72.1962C48.4201 72.3775 48.6178 72.5927 48.7527 72.8297C48.8876 73.0667 48.957 73.3207 48.957 73.5772C48.957 73.8337 48.8876 74.0877 48.7527 74.3247C48.6178 74.5616 48.4201 74.7769 48.1709 74.9582C47.9217 75.1395 47.6258 75.2832 47.3003 75.3812C46.9748 75.4791 46.6259 75.5294 46.2737 75.5291Z" fill="#6C63FF"/>
<path d="M182.792 61.6522H126.175C124.609 61.6509 123.108 61.1975 122.001 60.3913C120.894 59.5852 120.272 58.4922 120.27 57.3521V7.82272C120.272 6.68264 120.894 5.58964 122.001 4.78348C123.108 3.97733 124.609 3.52386 126.175 3.52257H182.792C184.357 3.52386 185.858 3.97733 186.965 4.78348C188.072 5.58964 188.695 6.68264 188.696 7.82272V57.3521C188.695 58.4922 188.072 59.5852 186.965 60.3913C185.858 61.1975 184.357 61.6509 182.792 61.6522ZM126.175 4.07132C124.809 4.07244 123.5 4.46803 122.534 5.17131C121.568 5.87459 121.025 6.82813 121.024 7.82272V57.3521C121.025 58.3467 121.568 59.3002 122.534 60.0035C123.5 60.7068 124.809 61.1024 126.175 61.1035H182.792C184.158 61.1024 185.467 60.7068 186.432 60.0035C187.398 59.3002 187.941 58.3467 187.943 57.3521V7.82272C187.941 6.82813 187.398 5.87459 186.432 5.17131C185.467 4.46803 184.158 4.07244 182.792 4.07132H126.175Z" fill="#3F3D56"/>
<path d="M167.718 7.59403H141.248C140 7.593 138.803 7.23133 137.92 6.58835C137.037 5.94538 136.541 5.07361 136.539 4.1643V3.42972C136.541 2.52042 137.037 1.64865 137.92 1.00567C138.803 0.362696 140 0.00102252 141.248 0H167.718C168.967 0.00102252 170.164 0.362696 171.046 1.00567C171.929 1.64865 172.426 2.52042 172.427 3.42972V4.1643C172.426 5.07361 171.929 5.94538 171.046 6.58835C170.164 7.23133 168.967 7.593 167.718 7.59403Z" fill="#CCCCCC"/>
<path d="M180.447 34.5393H128.52C128.167 34.5396 127.819 34.4893 127.493 34.3914C127.167 34.2934 126.872 34.1497 126.622 33.9684C126.373 33.7871 126.176 33.5719 126.041 33.3349C125.906 33.0979 125.836 32.8439 125.836 32.5874C125.836 32.3309 125.906 32.0769 126.041 31.8399C126.176 31.603 126.373 31.3877 126.622 31.2064C126.872 31.0251 127.167 30.8814 127.493 30.7834C127.819 30.6855 128.167 30.6352 128.52 30.6355H180.447C180.799 30.6352 181.148 30.6855 181.473 30.7834C181.799 30.8814 182.095 31.0251 182.344 31.2064C182.593 31.3877 182.791 31.603 182.926 31.8399C183.061 32.0769 183.13 32.3309 183.13 32.5874C183.13 32.8439 183.061 33.0979 182.926 33.3349C182.791 33.5719 182.593 33.7871 182.344 33.9684C182.095 34.1497 181.799 34.2934 181.473 34.3914C181.148 34.4893 180.799 34.5396 180.447 34.5393Z" fill="#6C63FF"/>
<path d="M180.447 42.8348H128.52C128.168 42.8348 127.819 42.7844 127.494 42.6863C127.169 42.5882 126.873 42.4444 126.624 42.2631C126.376 42.0819 126.178 41.8667 126.044 41.6299C125.909 41.3931 125.84 41.1393 125.84 40.883C125.84 40.6266 125.909 40.3728 126.044 40.136C126.178 39.8992 126.376 39.684 126.624 39.5028C126.873 39.3215 127.169 39.1777 127.494 39.0796C127.819 38.9815 128.168 38.9311 128.52 38.9311H180.447C180.799 38.9311 181.147 38.9815 181.472 39.0796C181.798 39.1777 182.093 39.3215 182.342 39.5028C182.591 39.684 182.788 39.8992 182.923 40.136C183.058 40.3728 183.127 40.6266 183.127 40.883C183.127 41.1393 183.058 41.3931 182.923 41.6299C182.788 41.8667 182.591 42.0819 182.342 42.2631C182.093 42.4444 181.798 42.5882 181.472 42.6863C181.147 42.7844 180.799 42.8348 180.447 42.8348Z" fill="#6C63FF"/>
<path d="M166.544 26.2438H142.423C142.07 26.2441 141.722 26.1938 141.396 26.0958C141.071 25.9979 140.775 25.8542 140.526 25.6729C140.276 25.4916 140.079 25.2763 139.944 25.0394C139.809 24.8024 139.739 24.5484 139.739 24.2919C139.739 24.0353 139.809 23.7813 139.944 23.5444C140.079 23.3074 140.276 23.0921 140.526 22.9108C140.775 22.7296 141.071 22.5858 141.396 22.4879C141.722 22.3899 142.07 22.3397 142.423 22.34H166.544C167.255 22.34 167.936 22.5456 168.439 22.9117C168.941 23.2777 169.224 23.7742 169.224 24.2919C169.224 24.8095 168.941 25.306 168.439 25.6721C167.936 26.0381 167.255 26.2438 166.544 26.2438Z" fill="#6C63FF"/>
<path d="M298.302 145.103L248.588 164.835C247.212 165.379 245.597 165.504 244.095 165.182C242.593 164.86 241.328 164.117 240.578 163.117L208.034 119.627C207.286 118.625 207.115 117.448 207.557 116.355C207.999 115.261 209.019 114.34 210.393 113.793L260.107 94.0614C261.482 93.517 263.098 93.3921 264.6 93.7142C266.101 94.0363 267.366 94.779 268.117 95.7795L300.661 139.27C301.408 140.271 301.58 141.448 301.138 142.542C300.695 143.635 299.675 144.557 298.302 145.103ZM210.754 114.275C209.555 114.752 208.665 115.555 208.28 116.51C207.894 117.464 208.043 118.49 208.696 119.364L241.239 162.854C241.894 163.727 242.998 164.375 244.308 164.656C245.618 164.937 247.027 164.828 248.227 164.353L297.941 144.621C299.14 144.144 300.029 143.341 300.415 142.387C300.801 141.433 300.651 140.406 299.999 139.532L267.455 96.0421C266.801 95.1693 265.697 94.5213 264.387 94.2403C263.077 93.9593 261.667 94.0683 260.468 94.5432L210.754 114.275Z" fill="#3F3D56"/>
<path d="M249.546 102.89L226.304 112.115C225.207 112.549 223.918 112.648 222.721 112.391C221.523 112.135 220.514 111.542 219.915 110.744L219.433 110.099C218.836 109.3 218.7 108.362 219.052 107.489C219.405 106.617 220.219 105.882 221.314 105.446L244.556 96.2216C245.653 95.7873 246.942 95.6877 248.14 95.9446C249.337 96.2015 250.346 96.7939 250.945 97.5919L251.428 98.2369C252.024 99.0358 252.161 99.9744 251.808 100.847C251.455 101.719 250.642 102.454 249.546 102.89Z" fill="#CCCCCC"/>
<path d="M278.428 122.113L232.832 140.211C232.523 140.333 232.184 140.41 231.834 140.438C231.484 140.465 231.13 140.441 230.792 140.369C230.455 140.297 230.14 140.176 229.866 140.015C229.592 139.854 229.365 139.656 229.196 139.431C229.028 139.206 228.922 138.959 228.885 138.704C228.847 138.449 228.879 138.191 228.979 137.945C229.078 137.699 229.243 137.47 229.464 137.271C229.685 137.071 229.958 136.905 230.267 136.783L275.863 118.686C276.487 118.438 277.221 118.381 277.902 118.527C278.584 118.673 279.158 119.011 279.499 119.466C279.839 119.92 279.917 120.454 279.716 120.951C279.515 121.448 279.052 121.866 278.428 122.113Z" fill="#CCCCCC"/>
<path d="M283.878 129.398L238.283 147.495C237.974 147.617 237.635 147.694 237.285 147.722C236.935 147.749 236.581 147.725 236.243 147.653C235.905 147.581 235.591 147.461 235.317 147.3C235.043 147.139 234.815 146.94 234.647 146.715C234.478 146.49 234.373 146.243 234.335 145.988C234.298 145.733 234.33 145.475 234.429 145.229C234.529 144.983 234.694 144.754 234.915 144.555C235.136 144.355 235.409 144.189 235.718 144.067L281.313 125.97C281.623 125.847 281.962 125.77 282.312 125.743C282.662 125.716 283.016 125.739 283.353 125.811C283.691 125.884 284.006 126.004 284.279 126.165C284.553 126.326 284.781 126.525 284.949 126.75C285.118 126.975 285.224 127.222 285.261 127.477C285.298 127.731 285.266 127.989 285.167 128.235C285.067 128.481 284.903 128.71 284.681 128.91C284.46 129.109 284.188 129.275 283.878 129.398Z" fill="#CCCCCC"/>
<path d="M260.769 119.675L239.589 128.081C239.28 128.204 238.941 128.281 238.591 128.308C238.241 128.335 237.887 128.312 237.55 128.24C237.212 128.167 236.897 128.047 236.623 127.886C236.349 127.725 236.122 127.526 235.953 127.301C235.785 127.076 235.679 126.829 235.642 126.574C235.604 126.319 235.636 126.062 235.736 125.816C235.835 125.57 236 125.341 236.221 125.141C236.442 124.942 236.715 124.776 237.024 124.653L258.204 116.247C258.513 116.124 258.852 116.047 259.202 116.02C259.552 115.993 259.906 116.016 260.244 116.088C260.581 116.161 260.896 116.281 261.17 116.442C261.444 116.603 261.672 116.802 261.84 117.027C262.008 117.252 262.114 117.499 262.152 117.754C262.189 118.009 262.157 118.266 262.058 118.512C261.958 118.758 261.793 118.987 261.572 119.187C261.351 119.386 261.078 119.552 260.769 119.675Z" fill="#CCCCCC"/>
<path d="M105.19 44.8539L78.7094 56.0512L79.0877 56.5257L105.568 45.3284L105.19 44.8539Z" fill="#3F3D56"/>
<path d="M106.315 47.8592L110.055 43.1136L102.542 43.1265L106.315 47.8592Z" fill="#3F3D56"/>
<path d="M183.562 118.515C183.502 118.515 183.443 118.505 183.39 118.485L81.6131 80.409C81.5245 80.3756 81.4576 80.318 81.4272 80.2488C81.3967 80.1796 81.4052 80.1044 81.4508 80.0398C81.4964 79.9751 81.5754 79.9263 81.6703 79.904C81.7653 79.8817 81.8685 79.8877 81.9574 79.9208L183.734 117.997C183.81 118.025 183.87 118.071 183.905 118.127C183.94 118.183 183.948 118.246 183.928 118.306C183.908 118.365 183.861 118.419 183.795 118.457C183.729 118.495 183.646 118.515 183.562 118.515Z" fill="#3F3D56"/>
<path d="M180.868 120.309L188.372 120.04L184.301 115.441L180.868 120.309Z" fill="#3F3D56"/>
<path d="M288.576 149.997C288.046 149.806 287.581 149.531 287.212 149.194C286.844 148.857 286.581 148.465 286.443 148.046C286.305 147.627 286.295 147.191 286.414 146.769C286.532 146.347 286.776 145.948 287.129 145.602L284.102 124.053H290.643L293.048 145.095C293.807 145.565 294.303 146.221 294.442 146.939C294.581 147.658 294.353 148.388 293.802 148.993C293.251 149.597 292.414 150.033 291.451 150.218C290.488 150.403 289.465 150.325 288.576 149.998V149.997Z" fill="#A0616A"/>
<path d="M282.571 112.16C287.681 112.16 291.824 109.143 291.824 105.421C291.824 101.699 287.681 98.682 282.571 98.682C277.46 98.682 273.318 101.699 273.318 105.421C273.318 109.143 277.46 112.16 282.571 112.16Z" fill="#A0616A"/>
<path d="M280.465 136.574L266.655 134.378C266.292 134.319 265.965 134.176 265.725 133.97C265.484 133.763 265.343 133.505 265.324 133.235C265.164 130.99 265.05 125.185 267.423 119.765C267.882 118.725 268.622 117.764 269.6 116.937C270.577 116.109 271.773 115.433 273.116 114.948C274.458 114.464 275.921 114.18 277.417 114.114C278.913 114.048 280.412 114.201 281.825 114.565C283.316 114.946 284.68 115.553 285.826 116.346C286.973 117.138 287.876 118.098 288.478 119.163C289.079 120.227 289.364 121.373 289.315 122.523C289.266 123.674 288.883 124.804 288.192 125.839C285.13 130.419 283.201 133.736 282.46 135.697C282.345 136.002 282.073 136.262 281.702 136.425C281.331 136.588 280.888 136.642 280.465 136.574Z" fill="#6C63FF"/>
<path d="M267.455 200.596L262.836 200.595L260.639 187.62L267.456 187.621L267.455 200.596Z" fill="#A0616A"/>
<path d="M259.537 199.634H268.445V203.719H253.929C253.929 202.635 254.52 201.596 255.571 200.83C256.623 200.064 258.05 199.634 259.537 199.634Z" fill="#2F2E41"/>
<path d="M313.641 196.236L309.593 197.856L299.084 187.258L305.058 184.866L313.641 196.236Z" fill="#A0616A"/>
<path d="M306.067 198.172L313.872 195.046L316.574 198.626L303.854 203.719C303.137 202.77 302.968 201.652 303.383 200.612C303.798 199.571 304.763 198.694 306.067 198.172Z" fill="#2F2E41"/>
<path d="M267.539 193.39L260.429 192.992C260.031 192.97 259.656 192.847 259.371 192.643C259.086 192.44 258.909 192.17 258.871 191.88C257.858 184.183 253.412 145.174 265.437 133.163L265.471 133.13L265.524 133.116C265.632 133.087 276.356 130.302 282.509 135.406C282.702 135.568 282.833 135.764 282.891 135.975C282.948 136.185 282.929 136.403 282.835 136.607L282.6 137.119C282.533 137.265 282.515 137.42 282.548 137.571C282.58 137.723 282.662 137.866 282.787 137.99C284.494 139.671 290.241 146.146 292.5 158.878C292.514 158.959 292.543 159.038 292.585 159.114L309.261 188.949C309.347 189.102 309.389 189.265 309.386 189.429C309.384 189.594 309.336 189.756 309.246 189.907C309.156 190.058 309.025 190.194 308.862 190.308C308.699 190.421 308.506 190.51 308.295 190.568L303.047 192.024C302.665 192.129 302.244 192.13 301.861 192.028C301.478 191.925 301.158 191.726 300.959 191.466L276.886 159.658C276.79 159.531 276.642 159.43 276.462 159.368C276.282 159.307 276.08 159.288 275.885 159.315C275.69 159.342 275.512 159.413 275.376 159.518C275.24 159.623 275.152 159.757 275.127 159.901L269.351 192.318C269.298 192.615 269.098 192.888 268.789 193.086C268.48 193.284 268.083 193.393 267.671 193.394C267.627 193.394 267.584 193.393 267.539 193.39Z" fill="#2F2E41"/>
<path d="M246.598 113.249C246.644 113.397 246.674 113.548 246.688 113.699L262.872 120.499L266.806 118.849L270.999 122.848L264.425 126.26C263.894 126.536 263.254 126.679 262.602 126.667C261.95 126.656 261.321 126.49 260.809 126.196L244.12 116.608C243.367 116.811 242.547 116.842 241.769 116.697C240.991 116.553 240.292 116.239 239.764 115.798C239.237 115.356 238.907 114.809 238.817 114.228C238.728 113.646 238.884 113.059 239.264 112.544C239.644 112.029 240.23 111.61 240.945 111.343C241.66 111.077 242.469 110.975 243.265 111.051C244.061 111.128 244.807 111.379 245.402 111.772C245.997 112.164 246.414 112.68 246.598 113.249V113.249Z" fill="#A0616A"/>
<path d="M263.094 119.819C263.143 119.645 263.243 119.481 263.386 119.338C263.53 119.195 263.715 119.076 263.927 118.989L271.354 115.965C272.341 115.41 273.589 115.163 274.826 115.278C276.062 115.392 277.186 115.86 277.95 116.577C278.714 117.294 279.057 118.202 278.903 119.103C278.749 120.004 278.111 120.823 277.128 121.382L271.207 125.86C271.038 125.988 270.833 126.088 270.606 126.153C270.38 126.218 270.136 126.246 269.893 126.236C269.65 126.227 269.412 126.179 269.197 126.096C268.981 126.014 268.792 125.898 268.643 125.758L263.413 120.821C263.264 120.68 263.158 120.518 263.103 120.345C263.048 120.172 263.045 119.993 263.094 119.819Z" fill="#6C63FF"/>
<path d="M282.318 129.143C282.129 129.032 281.975 128.892 281.866 128.733C281.758 128.574 281.698 128.4 281.69 128.222L281.424 122.028C281.202 121.135 281.476 120.214 282.185 119.468C282.894 118.721 283.981 118.21 285.207 118.046C286.433 117.882 287.698 118.079 288.725 118.593C289.752 119.108 290.457 119.898 290.686 120.79L293.417 126.68C293.495 126.848 293.522 127.027 293.497 127.203C293.472 127.38 293.395 127.55 293.271 127.703C293.147 127.856 292.979 127.987 292.779 128.089C292.58 128.19 292.352 128.259 292.112 128.29L283.686 129.398C283.446 129.43 283.2 129.424 282.964 129.38C282.728 129.335 282.508 129.255 282.318 129.143Z" fill="#6C63FF"/>
<path d="M281.106 103.871C278.728 105.056 275.605 106.275 273.176 105.013C271.581 104.184 271.079 102.649 271.725 101.302C272.889 98.8792 276.084 97.8128 279.14 96.9954C283.113 95.9327 287.438 95.0873 291.539 95.8483C295.64 96.6093 299.264 99.5011 298.524 102.536C297.929 104.976 294.768 107.007 295.217 109.464C295.668 111.936 299.487 113.238 302.858 113.68C306.229 114.122 310.001 114.264 312.423 116.027C315.514 118.277 314.742 122.298 311.834 124.673C308.926 127.048 304.538 128.124 300.285 128.856C294.651 129.826 288.558 130.336 283.207 128.726C277.856 127.117 273.692 122.785 275.242 118.723C275.897 117.007 277.439 115.557 278.93 114.145C280.42 112.733 281.93 111.257 282.498 109.525C282.972 108.081 282.622 106.405 281.307 105.322C281.068 105.133 280.918 104.893 280.878 104.637C280.837 104.382 280.909 104.123 281.083 103.899L281.106 103.871Z" fill="#2F2E41"/>
<path d="M348.982 204H205.443C205.343 204 205.247 203.971 205.176 203.92C205.106 203.868 205.066 203.798 205.066 203.726C205.066 203.653 205.106 203.583 205.176 203.532C205.247 203.48 205.343 203.451 205.443 203.451H348.982C349.082 203.451 349.178 203.48 349.248 203.532C349.319 203.583 349.359 203.653 349.359 203.726C349.359 203.798 349.319 203.868 349.248 203.92C349.178 203.971 349.082 204 348.982 204Z" fill="#3F3D56"/>
</g>
<defs>
<clipPath id="clip0_5_28">
<rect width="350" height="204" fill="white"/>
</clipPath>
</defs>
</svg>
